<?xml version="1.0" standalone="no"?><!DOCTYPE svg PUBLIC "-//W3C//DTD SVG 1.1//EN" "http://www.w3.org/Graphics/SVG/1.1/DTD/svg11.dtd"><svg class="icon" width="16px" height="16.00px" viewBox="0 0 1024 1024" version="1.1" xmlns="http://www.w3.org/2000/svg"><path fill="#ff8f00" d="M251.367619 726.308571c-6.826667 0-12.190476-5.36381-12.190476-12.190476v-179.443809c0-6.826667 5.36381-12.190476 12.190476-12.190476s12.190476 5.36381 12.190476 12.190476v179.443809c0 6.826667-5.36381 12.190476-12.190476 12.190476z"  /><path fill="#ff8f00" d="M390.095238 861.379048H124.342857c-43.885714 0-79.725714-35.84-79.725714-79.725715s35.84-79.725714 79.725714-79.725714h215.771429c6.826667 0 12.190476 5.36381 12.190476 12.190476s-5.36381 12.190476-12.190476 12.190476H124.342857c-30.47619 0-55.344762 24.868571-55.344762 55.344762s24.868571 55.344762 55.344762 55.344762H390.095238c6.826667 0 12.190476 5.36381 12.190476 12.190476s-5.36381 12.190476-12.190476 12.190477zM340.114286 566.125714c-121.417143 0-223.085714-96.060952-228.449524-218.453333-2.681905-60.952381 18.285714-119.466667 59.733333-164.815238s97.52381-71.43619 158.72-74.361905c61.19619-2.925714 119.466667 18.285714 164.815238 59.733333a228.156952 228.156952 0 0 1 74.605715 170.422858c0 6.826667-5.607619 12.190476-12.190477 12.190476-6.826667 0-12.190476-5.607619-12.190476-12.190476 0-3.413333 0-7.070476-0.243809-10.48381-2.438095-54.613333-26.087619-104.838095-66.316191-141.653333s-92.40381-55.588571-147.260952-53.394286c-54.613333 2.438095-104.838095 26.087619-141.653333 66.31619a203.483429 203.483429 0 0 0-53.394286 147.260953c5.12 112.64 100.449524 198.948571 213.577143 195.047619a12.214857 12.214857 0 0 1 0.975238 24.380952c-3.657143-0.24381-7.070476 0-10.727619 0z"  /><path fill="#ff8f00" d="M251.367619 793.84381h-90.209524c-6.826667 0-12.190476-5.36381-12.190476-12.190477s5.36381-12.190476 12.190476-12.190476h90.209524c6.826667 0 12.190476 5.36381 12.190476 12.190476 0 6.582857-5.36381 12.190476-12.190476 12.190477zM269.897143 451.535238c-2.438095 0-4.87619-0.731429-6.826667-2.194286-6.826667-4.632381-13.165714-9.99619-18.773333-15.847619a136.265143 136.265143 0 0 1 96.304762-232.594285c6.826667 0 12.190476 5.36381 12.190476 12.190476s-5.36381 12.190476-12.190476 12.190476c-29.988571 0-58.026667 11.702857-78.994286 32.670476a111.981714 111.981714 0 0 0 0 158.232381c4.87619 4.87619 9.99619 9.020952 15.60381 12.921905s6.826667 11.459048 3.169523 17.066667a13.897143 13.897143 0 0 1-10.483809 5.363809z"  /><path fill="#ff8f00" d="M674.620952 964.510476c-167.984762 0-304.761905-136.777143-304.761904-304.761905s136.777143-304.761905 304.761904-304.761904 304.761905 136.777143 304.761905 304.761904-136.777143 304.761905-304.761905 304.761905z m0-585.142857c-154.575238 0-280.380952 125.805714-280.380952 280.380952s125.805714 280.380952 280.380952 280.380953 280.380952-125.805714 280.380953-280.380953-125.805714-280.380952-280.380953-280.380952z"  /><path fill="#ff8f00" d="M834.80381 803.108571c-2.681905 0-5.36381-0.975238-7.801905-2.681904a12.04419 12.04419 0 0 1-1.706667-17.066667c51.2-62.415238 58.514286-151.161905 18.041905-220.891429-40.228571-69.729524-120.685714-107.76381-200.411429-94.841904a11.946667 11.946667 0 0 1-13.897143-9.996191c-0.975238-6.582857 3.413333-12.921905 9.996191-13.897143 89.478095-14.628571 180.175238 28.038095 225.523809 106.544762 45.348571 78.506667 37.059048 178.468571-20.48 248.685715-2.438095 2.681905-5.851429 4.144762-9.264761 4.144761zM674.864762 878.933333c-77.531429 0-151.161905-41.20381-190.415238-109.470476-45.348571-78.506667-37.059048-178.468571 20.48-248.685714 4.144762-5.12 11.946667-6.095238 17.066666-1.706667 5.12 4.144762 6.095238 11.946667 1.706667 17.066667-51.2 62.415238-58.514286 151.161905-18.041905 220.891428 40.228571 69.729524 120.685714 107.76381 200.411429 94.841905 6.582857-0.975238 12.921905 3.413333 13.897143 9.996191 0.975238 6.582857-3.413333 12.921905-9.996191 13.897143-11.702857 2.194286-23.405714 3.169524-35.108571 3.169523z"  /><path fill="#ff8f00" d="M604.647619 781.409524c-2.438095 0-4.87619-0.731429-7.070476-2.194286a12.458667 12.458667 0 0 1-4.876191-11.946667l11.946667-72.655238-53.150476-50.95619a11.873524 11.873524 0 0 1-3.169524-12.434286 12.190476 12.190476 0 0 1 9.752381-8.289524l72.899048-11.215238 32.182857-66.31619a12.190476 12.190476 0 0 1 10.971428-6.826667c4.632381 0 8.777143 2.681905 10.971429 6.826667l33.158095 65.828571 73.142857 9.996191c4.632381 0.731429 8.533333 3.900952 9.996191 8.289523 1.462857 4.388571 0.24381 9.264762-2.925715 12.434286l-52.419047 51.931429 12.921905 72.655238a12.336762 12.336762 0 0 1-17.798096 12.921905l-65.584762-33.889524-65.097142 34.864762c-1.950476 0.487619-3.900952 0.975238-5.851429 0.975238z m-18.529524-138.48381l39.984762 38.521905c2.925714 2.681905 4.144762 6.826667 3.657143 10.727619l-9.020952 54.613333 48.761904-26.087619a11.946667 11.946667 0 0 1 11.459048 0l49.249524 25.356191-9.752381-54.613333a11.702857 11.702857 0 0 1 3.413333-10.72762l39.497143-39.009523-55.100952-7.801905a12.288 12.288 0 0 1-9.264762-6.582857l-24.868572-49.493334-24.137143 49.980953c-1.706667 3.657143-5.12 6.095238-9.020952 6.826666l-54.857143 8.289524z"  /></svg>