<?xml version="1.0" standalone="no"?><!DOCTYPE svg PUBLIC "-//W3C//DTD SVG 1.1//EN" "http://www.w3.org/Graphics/SVG/1.1/DTD/svg11.dtd"><svg class="icon" width="16px" height="16.00px" viewBox="0 0 1024 1024" version="1.1" xmlns="http://www.w3.org/2000/svg"><path fill="#ff8f00" d="M855.943529 440.862118a160.466824 160.466824 0 0 0-122.096941 56.124235 160.527059 160.527059 0 0 0-231.664941-12.754824 367.299765 367.299765 0 0 0-52.570353-14.998588c75.926588-30.117647 129.837176-104.146824 129.837177-190.674823 0-113.152-92.039529-205.206588-205.19153-205.206589s-205.191529 92.054588-205.191529 205.206589c0 86.528 53.910588 160.557176 129.852235 190.674823C130.017882 504.154353 2.680471 654.049882 2.680471 833.129412c0 43.535059 30.539294 57.961412 55.085176 69.556706l1.415529 0.587294c98.966588 34.921412 242.115765 44.242824 311.100236 44.242823 77.281882 0 200.899765-11.610353 291.358117-37.014588a591.992471 591.992471 0 0 0 62.750118 38.384941l6.896941 3.629177 6.957177-3.523765c109.357176-55.627294 198.535529-145.889882 251.361882-254.659765l4.487529-10.029176c11.264-24.982588 22.904471-50.808471 22.904471-82.416941 0-88.771765-72.252235-161.024-161.054118-161.024zM199.168 278.558118c0-96.542118 78.546824-175.088941 175.073882-175.088942s175.073882 78.546824 175.073883 175.088942c0 96.527059-78.546824 175.073882-175.073883 175.073882s-175.073882-78.531765-175.073882-175.073882z m171.113412 638.84047c-66.891294 0-205.251765-8.914824-300.348236-42.285176-28.295529-13.432471-37.135059-21.082353-37.135058-41.999059 0-188.280471 153.178353-341.458824 341.443764-341.458824 36.547765 0 72.146824 5.948235 106.330353 17.167059a160 160 0 0 0-29.846588 93.06353c0 35.343059 12.784941 64.060235 25.133177 91.843764l0.677647 1.490824c35.328 73.607529 88.560941 139.489882 154.23247 192.165647-82.100706 19.727059-189.590588 30.012235-260.487529 30.012235zM966.640941 671.924706l-4.352 9.758118c-48.624941 100.096-130.379294 183.943529-230.731294 236.860235-100.080941-54.648471-180.841412-138.345412-228.171294-237.040941-12.107294-27.196235-22.543059-50.657882-22.543059-79.600942 0-72.192 58.729412-130.921412 130.921412-130.921411a130.635294 130.635294 0 0 1 109.492706 59.271529l12.589176 19.2 12.589177-19.184941a130.665412 130.665412 0 0 1 109.507764-59.286588c72.192 0 130.921412 58.729412 130.921412 130.921411 0.015059 25.133176-9.818353 46.938353-20.224 70.02353z" /></svg>