<?xml version="1.0" standalone="no"?><!DOCTYPE svg PUBLIC "-//W3C//DTD SVG 1.1//EN" "http://www.w3.org/Graphics/SVG/1.1/DTD/svg11.dtd"><svg class="icon" width="16px" height="11.98px" viewBox="0 0 1368 1024" version="1.1" xmlns="http://www.w3.org/2000/svg"><path fill="#ff8f00" d="M1200.761905 0H167.619048A167.92381 167.92381 0 0 0 0 167.619048v688.761904a167.92381 167.92381 0 0 0 167.619048 167.619048h1033.142857a167.92381 167.92381 0 0 0 167.619047-167.619048V167.619048A167.92381 167.92381 0 0 0 1200.761905 0zM167.619048 91.428571h1033.142857a76.190476 76.190476 0 0 1 76.190476 76.190477v73.142857H91.428571V167.619048A76.190476 76.190476 0 0 1 167.619048 91.428571z m1033.142857 841.142858H167.619048A76.190476 76.190476 0 0 1 91.428571 856.380952V332.190476h1185.52381v524.190476a76.190476 76.190476 0 0 1-76.190476 76.190477z"  /><path fill="#ff8f00" d="M1091.047619 463.238095H673.52381a105.752381 105.752381 0 0 0-188.64762 0H277.333333a45.714286 45.714286 0 0 0 0 91.428572h204.190477a106.361905 106.361905 0 0 0 195.35238 0H1091.047619a45.714286 45.714286 0 0 0 0-91.428572zM1091.047619 710.095238h-94.47619a106.666667 106.666667 0 0 0-195.352381 0H277.333333a45.714286 45.714286 0 0 0 0 91.428572h527.238096a105.752381 105.752381 0 0 0 188.647619 0h97.523809a45.714286 45.714286 0 0 0 0-91.428572z"  /></svg>