<?xml version="1.0" standalone="no"?><!DOCTYPE svg PUBLIC "-//W3C//DTD SVG 1.1//EN" "http://www.w3.org/Graphics/SVG/1.1/DTD/svg11.dtd"><svg class="icon" width="16px" height="16.00px" viewBox="0 0 1024 1024" version="1.1" xmlns="http://www.w3.org/2000/svg"><path fill="#ff8f00" d="M946.2 883.7l-142-142.1c-7.3-7.3-16.9-11.3-27.2-11.3s-20 4-27.2 11.3l-4.5 4.5c-15 15-15 39.4 0 54.5l146.5 146.5c7.5 7.5 17.4 11.3 27.2 11.3 9.9 0 19.7-3.8 27.2-11.3 17.5-17.5 17.5-45.9 0-63.4zM816.6 640.8C833.4 600.9 842 558.6 842 515c0-43.6-8.6-85.9-25.4-125.8-16.2-38.5-39.6-73-69.3-102.7-29.6-29.7-64.3-53-102.7-69.3-39.9-16.8-82.2-25.4-125.8-25.4-43.6 0-85.9 8.6-125.8 25.4-38.5 16.3-73 39.6-102.7 69.3-29.7 29.6-53 64.3-69.3 102.7-16.8 39.9-25.4 82.2-25.4 125.8 0 43.6 8.6 85.9 25.4 125.8 16.3 38.5 39.6 73 69.3 102.7 29.6 29.7 64.3 53 102.7 69.3 39.9 16.8 82.2 25.4 125.8 25.4 43.6 0 85.9-8.6 125.8-25.4 38.5-16.2 73-39.6 102.7-69.3 29.8-29.6 53.1-64.2 69.3-102.7zM518.9 800.6c-157.5 0-285.6-128.1-285.6-285.6 0-157.5 128.1-285.6 285.6-285.6 157.5 0 285.6 128.1 285.6 285.6-0.1 157.5-128.2 285.6-285.6 285.6z m0 0M334.7 370.9l-3-2.3c-7.7-5.9-18.9-4.1-24.3 4-0.2 0.2-0.4 0.6-0.6 0.9-5.4 8.1-2.7 19 5.7 23.8l3.4 1.9c7.7 4.4 17.6 2.1 22.5-5.3 0.1-0.1 0.1-0.2 0.2-0.2 4.9-7.5 3.2-17.4-3.9-22.8zM300 427.1c-10-4.2-21.6 0.8-25.1 11.1-10.1 29.5-15.2 60.3-15.2 92v0.5c0 10.9 9.3 19.4 20.1 18.6 9.9-0.7 17.5-9 17.5-18.9v-0.2c0-27.4 4.4-54.1 13.1-79.5 3.2-9.5-1.3-19.7-10.4-23.6z m0 0M254.2 873.5H178c-62 0-112.2-50.2-112.2-112.2V177.7c0-62 50.2-112.2 112.2-112.2h583.6c62 0 112.2 50.2 112.2 112.2v80.6c0 10.9-8.8 19.7-19.7 19.7-10.9 0-19.7-8.8-19.7-19.7v-80.6c0-40.2-32.6-72.7-72.7-72.7H178c-40.2 0-72.7 32.6-72.7 72.7v583.6c0 40.2 32.6 72.7 72.7 72.7h76.1c10.9 0 19.7 8.8 19.7 19.7 0.1 10.9-8.7 19.8-19.6 19.8z" /></svg>