<?xml version="1.0" standalone="no"?><!DOCTYPE svg PUBLIC "-//W3C//DTD SVG 1.1//EN" "http://www.w3.org/Graphics/SVG/1.1/DTD/svg11.dtd"><svg class="icon" width="200px" height="200.00px" viewBox="0 0 1024 1024" version="1.1" xmlns="http://www.w3.org/2000/svg"><path fill="#333333" d="M68.27185 597.339625c0 9.419876 7.645899 17.065775 17.065775 17.065775l59.733213 0c9.437876 0 17.065775-7.645899 17.065775-17.065775s-7.627899-17.065775-17.065775-17.065775L85.337625 580.27385C75.917749 580.27185 68.27185 587.917749 68.27185 597.339625zM136.53695 494.940975c0-9.419876-7.627899-17.065775-17.065775-17.065775l-102.39865 0c-9.419876 0-17.065775 7.645899-17.065775 17.065775s7.645899 17.065775 17.065775 17.065775l102.39865 0C128.909051 512.00675 136.53695 504.360851 136.53695 494.940975zM273.973138 42.116945c3.01996 23.909685 13.66982 119.430425-0.375995 175.613685-2.30397 9.147879 3.259957 18.413757 12.407836 20.701727 1.381982 0.341995 2.781963 0.511993 4.147945 0.511993 7.645899 0 14.609807-5.187932 16.537782-12.935829 8.721885-34.833541 9.045881-81.13493 7.115906-119.892419 26.931645 60.619201 27.527637 115.062483 27.527637 115.778474 0.034 9.403876 7.661899 17.031775 17.065775 17.031775l0.034 0c9.419876-0.018 17.031775-7.645899 17.031775-17.049775 0-3.481954-0.665991-69.085089-35.413533-140.184152 67.993104 54.801278 69.511084 136.054206 69.545083 140.218151 0.016 9.403876 7.661899 17.031775 17.065775 17.031775 9.437876 0 17.065775-7.645899 17.065775-17.065775 0-1.467981-1.859975-146.122074-143.768105-202.033336l-14.829804-14.829804c-6.655912-6.671912-17.45977-6.671912-24.131682 0-6.655912 6.655912-6.655912 17.45977 0 24.131682L273.973138 42.116945zM870.395275 170.67725l85.332875 0 0 51.199325c0 9.419876 7.645899 17.065775 17.065775 17.065775 9.437876 0 17.065775-7.645899 17.065775-17.065775l0-51.199325c0-18.807752-15.291798-34.11555-34.13355-34.13355l-85.332875 0c-9.419876 0-17.065775 7.645899-17.065775 17.065775S860.973399 170.67725 870.395275 170.67725zM494.932225 238.94435c9.437876 0 17.065775-7.645899 17.065775-17.065775L511.998 102.41215l204.7973 0 0 119.464425c0 9.419876 7.645899 17.065775 17.065775 17.065775 9.437876 0 17.065775-7.645899 17.065775-17.065775L750.92685 102.41215l34.13355 0 0 119.464425c0 9.419876 7.645899 17.065775 17.065775 17.065775 9.437876 0 17.065775-7.645899 17.065775-17.065775L819.19195 102.41215c0-18.807752-15.291798-34.11555-34.13355-34.13355L511.982 68.2786c-18.807752 0.016-34.11555 15.325798-34.11555 34.13355l0 119.464425C477.86645 231.298451 485.512349 238.94435 494.932225 238.94435zM819.19595 887.4698c-37.649504 0-68.2651 30.633596-68.2651 68.2651 0 37.649504 30.617596 68.2651 68.2651 68.2651s68.2651-30.617596 68.2651-68.2651C887.46105 918.103396 856.843454 887.4698 819.19595 887.4698zM819.19595 989.86645c-18.807752 0-34.13355-15.307798-34.13355-34.13355 0-18.823752 15.325798-34.13355 34.13355-34.13355 18.823752 0 34.13355 15.307798 34.13355 34.13355C853.3275 974.558652 838.019702 989.86645 819.19595 989.86645zM870.395275 819.2027 392.533575 819.2027c-25.617662 0-44.269416 33.34756-49.389349 43.571426-4.215944 8.429889-0.801989 18.653754 7.6119 22.869698 2.457968 1.245984 5.067933 1.825976 7.627899 1.825976 6.245918 0 12.269838-3.447955 15.273799-9.403876 5.649926-11.211852 15.377797-23.49969 18.875751-24.729674l477.8597 0c9.437876 0 17.065775-7.645899 17.065775-17.065775S879.831151 819.2027 870.395275 819.2027zM1020.033302 279.219819c-3.241957-3.891949-8.037894-6.143919-13.107827-6.143919l-767.989875 0c-9.419876 0-17.065775 7.645899-17.065775 17.065775 0 9.419876 7.645899 17.065775 17.065775 17.065775l747.528145 0c-24.523677 134.090232-68.521097 366.569167-81.048931 404.200671-12.833831 38.485493-50.601333 39.509479-52.087313 39.525479L324.268475 750.9336c-33.587557 0-48.195365-17.543769-51.985315-23.057696L170.430503 133.661738c-0.135998-0.853989-0.357995-1.689978-0.631992-2.507967-2.133972-6.433915-22.253707-62.873171-67.395111-62.873171L51.204075 68.2806c-20.581729 0-51.199325 13.63582-51.199325 51.199325s30.617596 51.199325 51.199325 51.199325l34.13355 0c9.437876 0 17.065775-7.645899 17.065775-17.065775s-7.627899-17.065775-17.065775-17.065775L51.410072 136.5477c-7.883896-0.203997-17.271772-3.327956-17.271772-17.065775s9.385876-16.861778 17.065775-17.065775l51.199325 0c17.031775 0 30.599597 27.357639 34.627543 38.433493l102.160653 595.908144c0.289996 1.655978 0.801989 3.259957 1.55398 4.743937 0.869989 1.775977 22.475704 43.571426 83.522899 43.571426l529.059025 0c21.96371 0 67.891105-13.141827 84.460887-62.855171 17.253773-51.763318 83.146904-413.638547 85.928867-429.016344C1024.623242 288.2157 1023.27526 283.095768 1020.033302 279.219819zM307.2027 887.4698c-37.649504 0-68.2651 30.633596-68.2651 68.2651 0 37.649504 30.617596 68.2651 68.2651 68.2651 37.649504 0 68.2651-30.617596 68.2651-68.2651C375.4678 918.103396 344.850204 887.4698 307.2027 887.4698zM307.2027 989.86645c-18.807752 0-34.13355-15.307798-34.13355-34.13355 0-18.823752 15.325798-34.13355 34.13355-34.13355 18.823752 0 34.13355 15.307798 34.13355 34.13355C341.33425 974.558652 326.026452 989.86645 307.2027 989.86645zM251.735431 460.807425c0 9.419876 7.645899 17.065775 17.065775 17.065775l118.544437 0 10.221865 102.39865-107.432584 0c-9.419876 0-17.065775 7.645899-17.065775 17.065775s7.645899 17.065775 17.065775 17.065775l110.846539 0 8.703885 87.038853c0.887988 8.789884 8.293891 15.359798 16.963776 15.359798 0.563993 0 1.143985-0.018 1.723977-0.085999 9.385876-0.937988 16.213786-9.301877 15.273799-18.671754l-8.36189-83.642897 144.980089 0 0 85.332875c0 9.419876 7.645899 17.065775 17.065775 17.065775 9.437876 0 17.065775-7.645899 17.065775-17.065775l0-85.332875 144.980089 0-8.36189 83.642897c-0.937988 9.369876 5.905922 17.731766 15.291798 18.671754 0.579992 0.067999 1.143985 0.085999 1.705978 0.085999 8.669886 0 16.093788-6.569913 16.963776-15.359798l8.703885-87.038853 85.246876 0c9.437876 0 17.065775-7.645899 17.065775-17.065775s-7.627899-17.065775-17.065775-17.065775L797.094241 580.27185l10.239865-102.39865 97.192719 0c9.437876 0 17.065775-7.645899 17.065775-17.065775s-7.627899-17.065775-17.065775-17.065775l-93.780764 0 8.36189-83.624898c0.937988-9.385876-5.887922-17.749766-15.273799-18.687754-9.489875-0.971987-17.731766 5.905922-18.687754 15.291798l-8.703885 87.020853-162.045864 0 0-85.332875c0-9.419876-7.627899-17.065775-17.065775-17.065775-9.419876 0-17.065775 7.645899-17.065775 17.065775l0 85.332875L418.219236 443.74165l-8.703885-87.020853c-0.921988-9.385876-9.181879-16.247786-18.669754-15.291798-9.385876 0.937988-16.229786 9.301877-15.291798 18.687754l8.36189 83.624898-115.112482 0C259.38133 443.74165 251.735431 451.387549 251.735431 460.807425zM614.39865 477.8732l158.631909 0-10.221865 102.39865-148.410043 0L614.39865 477.8732zM580.2651 477.8732l0 102.39865-148.392044 0-10.239865-102.39865L580.2651 477.8732zM170.6705 682.6725 51.204075 682.6725c-9.419876 0-17.065775 7.645899-17.065775 17.065775s7.645899 17.065775 17.065775 17.065775l119.464425 0c9.437876 0 17.065775-7.645899 17.065775-17.065775S180.108376 682.6725 170.6705 682.6725z" /></svg>