<?xml version="1.0" standalone="no"?><!DOCTYPE svg PUBLIC "-//W3C//DTD SVG 1.1//EN" "http://www.w3.org/Graphics/SVG/1.1/DTD/svg11.dtd"><svg t="1568884101065" class="icon" viewBox="0 0 1024 1024" version="1.1" xmlns="http://www.w3.org/2000/svg" p-id="881" xmlns:xlink="http://www.w3.org/1999/xlink" width="16" height="16"><defs><style type="text/css"></style></defs><path d="M927.4 98.2H323.6c-1.2-0.1-2.3-0.2-3.5-0.2-17.7 0-32 14.3-32 32s14.3 32 32 32v0.2h575.4v541.7H640c-17.6 0.1-31.8 14.4-31.8 32 0 17.7 14.3 32 32 32h287.3c17.7 0 32-14.3 32-32V130.2c-0.1-17.7-14.4-32-32.1-32zM409.9 716.3c-5.9-7.6-15-12.5-25.3-12.5H128.5V576h-0.5c-0.2-17.5-14.4-31.6-32-31.6-17.7 0-32 14.3-32 32 0 1.9 0.2 3.7 0.5 5.5v153.9c0 17.7 14.3 32 32 32h274.4l177 177c12.5 12.5 32.8 12.5 45.3 0s12.5-32.8 0-45.3L409.9 716.3zM96 511.8c17.7 0 32-14.3 32-32v-272l35.9 35.9c12.5 12.5 32.8 12.5 45.3 0s12.5-32.8 0-45.3l-90.5-90.5c-1.9-1.9-3.9-3.4-6-4.7-0.4-0.2-0.8-0.5-1.2-0.7l-0.1-0.1-1.2-0.6c-0.1 0-0.2-0.1-0.3-0.1-0.4-0.2-0.7-0.3-1.1-0.5-0.1-0.1-0.3-0.1-0.4-0.2-0.3-0.1-0.6-0.3-1-0.4-0.2-0.1-0.4-0.1-0.5-0.2l-0.9-0.3c-0.2-0.1-0.4-0.1-0.7-0.2-0.3-0.1-0.5-0.1-0.8-0.2-0.3-0.1-0.5-0.1-0.8-0.2-0.2-0.1-0.5-0.1-0.7-0.2-0.3-0.1-0.5-0.1-0.8-0.2-0.2 0-0.5-0.1-0.7-0.1-0.3 0-0.6-0.1-0.8-0.1-0.3 0-0.5-0.1-0.8-0.1-0.3 0-0.5-0.1-0.8-0.1-0.3 0-0.6-0.1-1-0.1h-2.2-1.5c-0.3 0-0.6 0-0.9 0.1-0.2 0-0.4 0-0.7 0.1-0.4 0-0.7 0.1-1.1 0.1-0.1 0-0.3 0-0.4 0.1-0.3 0-0.7 0-1.1 0.1-0.1 0-0.2 0-0.3 0.1l-1.2 0.3c-0.1 0-0.2 0-0.3 0.1l-1.2 0.3c-0.1 0-0.2 0.1-0.3 0.1-0.4 0.1-0.8 0.2-1.1 0.4-0.1 0-0.2 0.1-0.4 0.1-0.4 0.1-0.7 0.3-1 0.4-0.1 0.1-0.3 0.1-0.4 0.2-0.3 0.1-0.6 0.3-1 0.4-0.2 0.1-0.3 0.1-0.5 0.2-0.3 0.1-0.6 0.3-0.9 0.4-0.2 0.1-0.3 0.2-0.5 0.3-0.3 0.2-0.6 0.3-0.8 0.5-0.2 0.1-0.3 0.2-0.5 0.3-0.3 0.2-0.6 0.4-0.9 0.5-0.2 0.1-0.3 0.2-0.5 0.3l-0.9 0.6c-0.1 0.1-0.2 0.2-0.3 0.2-0.4 0.3-0.8 0.6-1.1 0.9l-0.1 0.1c-2.1 1.7-4 3.7-5.6 5.9l-0.1 0.1c-0.3 0.4-0.5 0.8-0.8 1.1-0.1 0.1-0.1 0.2-0.2 0.2-0.2 0.4-0.5 0.7-0.7 1.1 0 0.1-0.1 0.2-0.1 0.3-0.2 0.4-0.4 0.7-0.6 1.1 0 0.1-0.1 0.1-0.1 0.2l-0.6 1.2s0 0.1-0.1 0.1c-0.2 0.4-0.4 0.9-0.6 1.3-1.5 3.7-2.3 7.8-2.3 12v349.2c-0.2 17.9 14.1 32.2 31.8 32.2z" fill="#FF8F00" p-id="882"></path><path d="M623 377.4c8.5-15.6 12.7-33 12.7-52.3 0-32.1-10.8-56.8-32.5-74.1-21.7-17.3-51.2-26-88.7-26-36.9 0-69.9 8.7-98.9 26v80.6c27.6-24.6 57.4-36.9 89.5-36.9 13.7 0 24.9 3.9 33.6 11.8 8.7 7.9 13 18 13 30.3 0 11.3-3 21.8-9.1 31.5s-17.7 21.9-34.9 36.4c-27.7 23.4-41.6 49.8-41.6 79.1 0 12 2.1 23.6 6.2 34.9h70.5c-4.7-8.8-7-17.9-7-27.3 0-9.5 2.2-18.6 6.5-27.1s15.6-20.4 33.8-35.6c22.8-18.6 38.4-35.7 46.9-51.3zM546.2 564.3c-9.6-8.4-21.1-12.6-34.5-12.6-13.9 0-25.7 4.2-35.4 12.6-9.7 8.4-14.6 19-14.6 31.9 0 12.1 4.8 22.6 14.3 31.5 9.5 8.8 22.4 13.3 38.5 13.3 12.7 0 23.5-4.3 32.5-12.9 9-8.6 13.5-19.2 13.5-31.9 0.1-12.8-4.7-23.4-14.3-31.9z" fill="#FF8F00" p-id="883"></path></svg>