<?xml version="1.0" standalone="no"?><!DOCTYPE svg PUBLIC "-//W3C//DTD SVG 1.1//EN" "http://www.w3.org/Graphics/SVG/1.1/DTD/svg11.dtd"><svg t="1560407464427" class="icon" style="" viewBox="0 0 1024 1024" version="1.1" xmlns="http://www.w3.org/2000/svg" p-id="10587" xmlns:xlink="http://www.w3.org/1999/xlink" width="200" height="200"><defs><style type="text/css"></style></defs><path d="M640 576a128 128 0 1 0 128-128c-34.432 0-65.472 13.76-88.576 35.904C646.72 424.576 584.448 384 512 384s-134.72 40.576-167.424 99.904A127.488 127.488 0 0 0 256 448a128 128 0 1 0 128 128 128 128 0 0 1 256 0z m128-63.488a63.488 63.488 0 1 1 0 126.976 63.488 63.488 0 0 1 0-126.976zM256 639.488a63.488 63.488 0 1 1 0-126.976 63.488 63.488 0 0 1 0 126.976zM512 320A128 128 0 1 0 511.936 63.936 128 128 0 0 0 512 320z m0-191.488a63.488 63.488 0 1 1 0 126.976 63.488 63.488 0 0 1 0-126.976zM256 768a192 192 0 0 0-192 192h64a128 128 0 0 1 256 0h64a192 192 0 0 0-192-192zM768 768a192 192 0 0 0-192 192h64a128 128 0 0 1 256 0h64a192 192 0 0 0-192-192z" fill="" p-id="10588"></path></svg>