<?xml version="1.0" standalone="no"?><!DOCTYPE svg PUBLIC "-//W3C//DTD SVG 1.1//EN" "http://www.w3.org/Graphics/SVG/1.1/DTD/svg11.dtd"><svg class="icon" width="16px" height="16.00px" viewBox="0 0 1024 1024" version="1.1" xmlns="http://www.w3.org/2000/svg"><path fill="#ff8f00" d="M896 821.333333H128c-12.8 0-21.333333-8.533333-21.333333-21.333333s8.533333-21.333333 21.333333-21.333333h768c12.8 0 21.333333 8.533333 21.333333 21.333333s-8.533333 21.333333-21.333333 21.333333zM654.933333 810.666667H554.666667c-12.8 0-21.333333-8.533333-21.333334-21.333334v-170.666666c0-12.8 8.533333-21.333333 21.333334-21.333334h100.266666c12.8 0 21.333333 8.533333 21.333334 21.333334v170.666666c0 12.8-10.666667 21.333333-21.333334 21.333334zM576 768h57.6v-128H576v128zM753.066667 810.666667h-100.266667c-12.8 0-21.333333-8.533333-21.333333-21.333334V533.333333c0-12.8 8.533333-21.333333 21.333333-21.333333h100.266667c12.8 0 21.333333 8.533333 21.333333 21.333333v256c0 12.8-8.533333 21.333333-21.333333 21.333334z m-76.8-42.666667h57.6V554.666667h-57.6v213.333333zM853.333333 810.666667h-100.266666c-12.8 0-21.333333-8.533333-21.333334-21.333334V362.666667c0-12.8 8.533333-21.333333 21.333334-21.333334H853.333333c12.8 0 21.333333 8.533333 21.333334 21.333334v426.666666c0 12.8-8.533333 21.333333-21.333334 21.333334z m-78.933333-42.666667H832V384h-57.6v384zM544 469.333333c-6.4 0-10.666667-2.133333-14.933333-6.4-8.533333-8.533333-8.533333-21.333333 0-29.866666l277.333333-277.333334c8.533333-8.533333 21.333333-8.533333 29.866667 0s8.533333 21.333333 0 29.866667l-277.333334 277.333333c-4.266667 4.266667-8.533333 6.4-14.933333 6.4zM842.666667 262.4c-10.666667 0-21.333333-8.533333-21.333334-21.333333l-2.133333-64-64 2.133333c-12.8 0-21.333333-8.533333-21.333333-21.333333s8.533333-21.333333 21.333333-21.333334l85.333333-2.133333c12.8 0 21.333333 8.533333 21.333334 21.333333l2.133333 85.333334c0 10.666667-8.533333 21.333333-21.333333 21.333333zM288 725.333333c-117.333333 0-213.333333-96-213.333333-213.333333s96-213.333333 213.333333-213.333333 213.333333 96 213.333333 213.333333-96 213.333333-213.333333 213.333333z m0-384c-93.866667 0-170.666667 76.8-170.666667 170.666667s76.8 170.666667 170.666667 170.666667 170.666667-76.8 170.666667-170.666667-76.8-170.666667-170.666667-170.666667zM294.4 627.2h-57.6c-12.8 0-21.333333-8.533333-21.333333-21.333333s8.533333-21.333333 21.333333-21.333334h57.6c17.066667 0 29.866667-10.666667 29.866667-25.6s-12.8-25.6-29.866667-25.6h-12.8c-40.533333 0-72.533333-29.866667-72.533333-68.266666s32-68.266667 72.533333-68.266667h51.2c12.8 0 21.333333 8.533333 21.333333 21.333333s-8.533333 21.333333-21.333333 21.333334h-51.2c-17.066667 0-29.866667 10.666667-29.866667 25.6s12.8 25.6 29.866667 25.6h12.8c40.533333 0 72.533333 29.866667 72.533333 68.266666s-32 68.266667-72.533333 68.266667zM288 672c-12.8 0-21.333333-8.533333-21.333333-21.333333v-34.133334c0-12.8 8.533333-21.333333 21.333333-21.333333s21.333333 8.533333 21.333333 21.333333v34.133334c0 12.8-8.533333 21.333333-21.333333 21.333333zM288 439.466667c-12.8 0-21.333333-8.533333-21.333333-21.333334V384c0-12.8 8.533333-21.333333 21.333333-21.333333s21.333333 8.533333 21.333333 21.333333v34.133333c0 12.8-8.533333 21.333333-21.333333 21.333334z" /></svg>