<?xml version="1.0" standalone="no"?><!DOCTYPE svg PUBLIC "-//W3C//DTD SVG 1.1//EN" "http://www.w3.org/Graphics/SVG/1.1/DTD/svg11.dtd"><svg t="1567158563832" class="icon" viewBox="0 0 1024 1024" version="1.1" xmlns="http://www.w3.org/2000/svg" p-id="4377" xmlns:xlink="http://www.w3.org/1999/xlink" width="16" height="16"><defs><style type="text/css"></style></defs><path d="M853.333333 1024H170.666667c-95.085714 0-170.666667-75.580952-170.666667-170.666667V170.666667c0-95.085714 75.580952-170.666667 170.666667-170.666667h682.666666c95.085714 0 170.666667 75.580952 170.666667 170.666667v682.666666c0 95.085714-75.580952 170.666667-170.666667 170.666667zM170.666667 48.761905C102.4 48.761905 48.761905 104.838095 48.761905 170.666667v682.666666c0 68.266667 53.638095 121.904762 121.904762 121.904762h682.666666c68.266667 0 121.904762-53.638095 121.904762-121.904762V170.666667c0-68.266667-53.638095-121.904762-121.904762-121.904762H170.666667z" fill="#ff8f00" p-id="4378"></path><path d="M319.390476 170.666667h48.761905c53.638095 0 97.52381 43.885714 97.523809 97.523809v585.142857c0 53.638095-43.885714 97.52381-97.523809 97.52381h-48.761905c-53.638095 0-97.52381-43.885714-97.523809-97.52381V268.190476c0-53.638095 43.885714-97.52381 97.523809-97.523809z" fill="#ff8f00" p-id="4379"></path><path d="M270.628571 170.666667c26.819048 0 48.761905 21.942857 48.761905 48.761904v585.142858c0 26.819048-21.942857 48.761905-48.761905 48.761904h-48.761904c-26.819048 0-48.761905-21.942857-48.761905-48.761904V219.428571c0-26.819048 21.942857-48.761905 48.761905-48.761904h48.761904m0-48.761905h-48.761904c-53.638095 0-97.52381 43.885714-97.52381 97.523809v585.142858c0 53.638095 43.885714 97.52381 97.52381 97.523809h48.761904c53.638095 0 97.52381-43.885714 97.52381-97.523809V219.428571c0-53.638095-43.885714-97.52381-97.52381-97.523809zM853.333333 170.666667v146.285714H463.238095V170.666667h390.095238m0-48.761905H463.238095c-26.819048 0-48.761905 21.942857-48.761905 48.761905v146.285714c0 26.819048 21.942857 48.761905 48.761905 48.761905h390.095238c26.819048 0 48.761905-21.942857 48.761905-48.761905V170.666667c0-26.819048-21.942857-48.761905-48.761905-48.761905zM487.619048 460.8c14.628571 0 24.380952 9.752381 24.380952 24.380952s-9.752381 24.380952-24.380952 24.380953-24.380952-9.752381-24.380953-24.380953 12.190476-24.380952 24.380953-24.380952m0-48.761905c-41.447619 0-73.142857 31.695238-73.142858 73.142857s31.695238 73.142857 73.142858 73.142858 73.142857-31.695238 73.142857-73.142858-31.695238-73.142857-73.142857-73.142857zM658.285714 460.8c14.628571 0 24.380952 9.752381 24.380953 24.380952s-9.752381 24.380952-24.380953 24.380953-24.380952-9.752381-24.380952-24.380953 12.190476-24.380952 24.380952-24.380952m0-48.761905c-41.447619 0-73.142857 31.695238-73.142857 73.142857s31.695238 73.142857 73.142857 73.142858 73.142857-31.695238 73.142857-73.142858-31.695238-73.142857-73.142857-73.142857zM828.952381 460.8c14.628571 0 24.380952 9.752381 24.380952 24.380952s-9.752381 24.380952-24.380952 24.380953-24.380952-9.752381-24.380952-24.380953 12.190476-24.380952 24.380952-24.380952m0-48.761905c-41.447619 0-73.142857 31.695238-73.142857 73.142857s31.695238 73.142857 73.142857 73.142858 73.142857-31.695238 73.142857-73.142858-31.695238-73.142857-73.142857-73.142857zM487.619048 631.466667c14.628571 0 24.380952 9.752381 24.380952 24.380952s-9.752381 24.380952-24.380952 24.380952-24.380952-9.752381-24.380953-24.380952 12.190476-24.380952 24.380953-24.380952m0-48.761905c-41.447619 0-73.142857 31.695238-73.142858 73.142857s31.695238 73.142857 73.142858 73.142857 73.142857-31.695238 73.142857-73.142857c0-39.009524-31.695238-73.142857-73.142857-73.142857zM658.285714 631.466667c14.628571 0 24.380952 9.752381 24.380953 24.380952s-9.752381 24.380952-24.380953 24.380952-24.380952-9.752381-24.380952-24.380952 12.190476-24.380952 24.380952-24.380952m0-48.761905c-41.447619 0-73.142857 31.695238-73.142857 73.142857s31.695238 73.142857 73.142857 73.142857 73.142857-31.695238 73.142857-73.142857c0-39.009524-31.695238-73.142857-73.142857-73.142857zM828.952381 631.466667c14.628571 0 24.380952 9.752381 24.380952 24.380952s-9.752381 24.380952-24.380952 24.380952-24.380952-9.752381-24.380952-24.380952 12.190476-24.380952 24.380952-24.380952m0-48.761905c-41.447619 0-73.142857 31.695238-73.142857 73.142857s31.695238 73.142857 73.142857 73.142857 73.142857-31.695238 73.142857-73.142857c0-39.009524-31.695238-73.142857-73.142857-73.142857zM487.619048 802.133333c14.628571 0 24.380952 9.752381 24.380952 24.380953s-9.752381 24.380952-24.380952 24.380952-24.380952-9.752381-24.380953-24.380952 12.190476-24.380952 24.380953-24.380953m0-48.761904c-41.447619 0-73.142857 31.695238-73.142858 73.142857s31.695238 73.142857 73.142858 73.142857 73.142857-31.695238 73.142857-73.142857-31.695238-73.142857-73.142857-73.142857zM658.285714 802.133333c14.628571 0 24.380952 9.752381 24.380953 24.380953s-9.752381 24.380952-24.380953 24.380952-24.380952-9.752381-24.380952-24.380952 12.190476-24.380952 24.380952-24.380953m0-48.761904c-41.447619 0-73.142857 31.695238-73.142857 73.142857s31.695238 73.142857 73.142857 73.142857 73.142857-31.695238 73.142857-73.142857-31.695238-73.142857-73.142857-73.142857zM828.952381 802.133333c14.628571 0 24.380952 9.752381 24.380952 24.380953s-9.752381 24.380952-24.380952 24.380952-24.380952-9.752381-24.380952-24.380952 12.190476-24.380952 24.380952-24.380953m0-48.761904c-41.447619 0-73.142857 31.695238-73.142857 73.142857s31.695238 73.142857 73.142857 73.142857 73.142857-31.695238 73.142857-73.142857-31.695238-73.142857-73.142857-73.142857z" fill="#ff8f00" p-id="4380"></path></svg>